<svg width="130" height="32" viewBox="0 0 130 32" fill="none" xmlns="http://www.w3.org/2000/svg">
<g clip-path="url(#clip0_5161_5524)">
<path fill-rule="evenodd" clip-rule="evenodd" d="M2.44517 16.7427C2.79358 10.417 6.53102 6.57543 6.53102 6.57543C6.02425 6.95958 5.54281 7.38215 5.09305 7.83674C2.7239 10.2249 1.34928 13.3878 1.20358 16.7427H2.44517ZM28.9177 18.9132C28.5566 22.3321 27.0363 25.399 24.7558 27.7039C22.1332 30.3545 18.5098 31.9936 14.5063 31.9936C10.5028 31.9936 6.87942 30.3545 4.25688 27.7039C1.96374 25.4054 0.443425 22.3321 0.0823504 18.9132H1.2796C1.63434 21.9992 3.02163 24.7715 5.08672 26.8523C7.49388 29.2853 10.8196 30.7899 14.4937 30.7899C18.1678 30.7899 21.4934 29.2853 23.9006 26.8523C25.9657 24.7651 27.353 21.9992 27.7077 18.9132H28.9177ZM14.5 0C15.4882 0 16.2864 0.806723 16.2864 1.80552C16.2864 2.15766 16.185 2.4906 16.0076 2.77231C19.4094 3.13085 22.4627 4.67387 24.7495 6.98519C27.372 9.63586 28.9937 13.2981 28.9937 17.3445V17.9464H28.981H27.7901H23.5775H22.3803H6.61337H5.41612H1.20358H0.0126693H0V17.3445C0 13.2981 1.62167 9.63586 4.24421 6.98519C6.53102 4.67387 9.58432 3.12445 12.986 2.77231C12.8087 2.4906 12.7073 2.16407 12.7073 1.80552C12.7136 0.806723 13.5118 0 14.5 0ZM20.7396 18.9132C20.4546 20.0784 19.8591 21.1157 19.0483 21.9416C17.8827 23.1197 16.28 23.8431 14.5 23.8431C12.7263 23.8431 11.1173 23.1132 9.95173 21.9416C9.14089 21.1221 8.54543 20.0784 8.26038 18.9132H9.49563C9.74902 19.7455 10.2051 20.4882 10.7942 21.09C11.7444 22.0504 13.0494 22.6395 14.5 22.6395C15.9506 22.6395 17.2556 22.044 18.2058 21.09C18.8012 20.4882 19.251 19.7455 19.5044 18.9132H20.7396ZM22.412 24.445C22.3233 24.541 22.2346 24.6371 22.1396 24.7267C20.1948 26.6923 17.5153 27.9024 14.5507 27.9024C11.5861 27.9024 8.90651 26.6859 6.96177 24.7267C6.89843 24.6627 6.82875 24.5922 6.7654 24.5218C5.87855 24.7331 4.92835 24.2849 4.54194 23.4142L4.19353 22.6395L4.1872 22.6331L3.29402 20.6355C3.23067 20.4946 3.29402 20.3281 3.43338 20.2641C3.57274 20.2001 3.73744 20.2641 3.80079 20.405L4.21254 21.3269L4.82066 22.6843C4.88401 22.8251 5.04871 22.8892 5.18807 22.8251C5.26409 22.7867 5.3211 22.7227 5.34011 22.6459C5.29576 22.569 5.25142 22.4986 5.20708 22.4218H5.30843L5.20708 22.1913V22.1849L4.30756 20.1681C4.24421 20.0272 4.30756 19.8607 4.44692 19.7967C4.58628 19.7327 4.75098 19.7967 4.81433 19.9376L5.22608 20.8595L5.83421 22.2169C5.89755 22.3577 6.06225 22.4218 6.20162 22.3577C6.34098 22.2937 6.40433 22.1273 6.34098 21.9864L6.22062 21.7175L5.73285 20.6291L5.3211 19.7071C5.25775 19.5662 5.3211 19.3998 5.46046 19.3357C5.59983 19.2717 5.76453 19.3357 5.82787 19.4766L6.23962 20.3986L6.84775 21.7559C6.9111 21.8968 7.0758 21.9608 7.21516 21.8968C7.35452 21.8327 7.41787 21.6663 7.35452 21.5254L6.7464 20.1681L6.33464 19.2461C6.2713 19.1052 6.33464 18.9388 6.47401 18.8748C6.61337 18.8107 6.77807 18.8748 6.84142 19.0156L7.25317 19.9376L8.09568 21.8071C8.38707 22.4538 8.29838 23.1837 7.93097 23.7343L7.94364 23.7471C9.62866 25.4502 11.9598 26.5066 14.538 26.5066C17.1162 26.5066 19.4474 25.4502 21.1324 23.7471C21.2211 23.6575 21.3097 23.5614 21.3984 23.4654C21.1007 22.7163 21.1894 21.7111 21.7152 20.8019C22.5007 19.4446 23.9513 18.8299 24.9648 19.4254C25.972 20.0208 26.1557 21.6022 25.3766 22.9596C24.6671 24.1825 23.3938 24.8035 22.412 24.445Z" fill="url(#paint0_linear_5161_5524)"/>
</g>
<path d="M48.5881 11.786C45.9781 11.786 44.4841 13.676 44.4841 16.52C44.4841 19.454 46.1761 21.056 48.6061 21.056C50.8921 21.056 52.2781 19.796 52.2781 17.69V17.636H48.3001V15.602H54.4201V23H52.4761L52.3321 21.488C51.6121 22.496 50.1181 23.198 48.3361 23.198C44.6461 23.198 42.0721 20.516 42.0721 16.466C42.0721 12.47 44.6821 9.626 48.6421 9.626C51.6481 9.626 53.9701 11.372 54.3481 14.054H51.9181C51.5041 12.506 50.1721 11.786 48.5881 11.786ZM56.0622 18.536C56.0622 15.764 58.0602 13.856 60.8142 13.856C63.5682 13.856 65.5662 15.764 65.5662 18.536C65.5662 21.308 63.5682 23.216 60.8142 23.216C58.0602 23.216 56.0622 21.308 56.0622 18.536ZM58.2582 18.536C58.2582 20.156 59.3022 21.254 60.8142 21.254C62.3262 21.254 63.3702 20.156 63.3702 18.536C63.3702 16.916 62.3262 15.818 60.8142 15.818C59.3022 15.818 58.2582 16.916 58.2582 18.536ZM81.9864 20.498H80.3844V23H78.2064V20.498H71.5284V18.482L77.4864 9.842H80.3844V18.482H81.9864V20.498ZM73.9764 18.482H78.2064V12.326L73.9764 18.482ZM96.1707 17.618H91.2747V23H88.9707V9.842H97.1067V11.966H91.2747V15.548H96.1707V17.618ZM97.652 18.536C97.652 15.764 99.65 13.856 102.404 13.856C105.158 13.856 107.156 15.764 107.156 18.536C107.156 21.308 105.158 23.216 102.404 23.216C99.65 23.216 97.652 21.308 97.652 18.536ZM99.848 18.536C99.848 20.156 100.892 21.254 102.404 21.254C103.916 21.254 104.96 20.156 104.96 18.536C104.96 16.916 103.916 15.818 102.404 15.818C100.892 15.818 99.848 16.916 99.848 18.536ZM108.375 18.536C108.375 15.764 110.373 13.856 113.127 13.856C115.881 13.856 117.879 15.764 117.879 18.536C117.879 21.308 115.881 23.216 113.127 23.216C110.373 23.216 108.375 21.308 108.375 18.536ZM110.571 18.536C110.571 20.156 111.615 21.254 113.127 21.254C114.639 21.254 115.683 20.156 115.683 18.536C115.683 16.916 114.639 15.818 113.127 15.818C111.615 15.818 110.571 16.916 110.571 18.536ZM123.273 23.234C120.699 23.234 119.097 21.344 119.097 18.59C119.097 15.818 120.717 13.838 123.399 13.838C124.641 13.838 125.739 14.36 126.297 15.242V9.608H128.475V23H126.459L126.315 21.614C125.775 22.64 124.623 23.234 123.273 23.234ZM123.759 21.218C125.289 21.218 126.279 20.12 126.279 18.518C126.279 16.916 125.289 15.8 123.759 15.8C122.229 15.8 121.293 16.934 121.293 18.518C121.293 20.102 122.229 21.218 123.759 21.218Z" fill="#18181B"/>
<path d="M48.5881 11.786C45.9781 11.786 44.4841 13.676 44.4841 16.52C44.4841 19.454 46.1761 21.056 48.6061 21.056C50.8921 21.056 52.2781 19.796 52.2781 17.69V17.636H48.3001V15.602H54.4201V23H52.4761L52.3321 21.488C51.6121 22.496 50.1181 23.198 48.3361 23.198C44.6461 23.198 42.0721 20.516 42.0721 16.466C42.0721 12.47 44.6821 9.626 48.6421 9.626C51.6481 9.626 53.9701 11.372 54.3481 14.054H51.9181C51.5041 12.506 50.1721 11.786 48.5881 11.786ZM56.0622 18.536C56.0622 15.764 58.0602 13.856 60.8142 13.856C63.5682 13.856 65.5662 15.764 65.5662 18.536C65.5662 21.308 63.5682 23.216 60.8142 23.216C58.0602 23.216 56.0622 21.308 56.0622 18.536ZM58.2582 18.536C58.2582 20.156 59.3022 21.254 60.8142 21.254C62.3262 21.254 63.3702 20.156 63.3702 18.536C63.3702 16.916 62.3262 15.818 60.8142 15.818C59.3022 15.818 58.2582 16.916 58.2582 18.536ZM81.9864 20.498H80.3844V23H78.2064V20.498H71.5284V18.482L77.4864 9.842H80.3844V18.482H81.9864V20.498ZM73.9764 18.482H78.2064V12.326L73.9764 18.482ZM96.1707 17.618H91.2747V23H88.9707V9.842H97.1067V11.966H91.2747V15.548H96.1707V17.618ZM97.652 18.536C97.652 15.764 99.65 13.856 102.404 13.856C105.158 13.856 107.156 15.764 107.156 18.536C107.156 21.308 105.158 23.216 102.404 23.216C99.65 23.216 97.652 21.308 97.652 18.536ZM99.848 18.536C99.848 20.156 100.892 21.254 102.404 21.254C103.916 21.254 104.96 20.156 104.96 18.536C104.96 16.916 103.916 15.818 102.404 15.818C100.892 15.818 99.848 16.916 99.848 18.536ZM108.375 18.536C108.375 15.764 110.373 13.856 113.127 13.856C115.881 13.856 117.879 15.764 117.879 18.536C117.879 21.308 115.881 23.216 113.127 23.216C110.373 23.216 108.375 21.308 108.375 18.536ZM110.571 18.536C110.571 20.156 111.615 21.254 113.127 21.254C114.639 21.254 115.683 20.156 115.683 18.536C115.683 16.916 114.639 15.818 113.127 15.818C111.615 15.818 110.571 16.916 110.571 18.536ZM123.273 23.234C120.699 23.234 119.097 21.344 119.097 18.59C119.097 15.818 120.717 13.838 123.399 13.838C124.641 13.838 125.739 14.36 126.297 15.242V9.608H128.475V23H126.459L126.315 21.614C125.775 22.64 124.623 23.234 123.273 23.234ZM123.759 21.218C125.289 21.218 126.279 20.12 126.279 18.518C126.279 16.916 125.289 15.8 123.759 15.8C122.229 15.8 121.293 16.934 121.293 18.518C121.293 20.102 122.229 21.218 123.759 21.218Z" fill="url(#paint1_linear_5161_5524)"/>
<defs>
<linearGradient id="paint0_linear_5161_5524" x1="14.4968" y1="0" x2="14.4968" y2="31.9936" gradientUnits="userSpaceOnUse">
<stop stop-color="#F24A4A"/>
<stop offset="1" stop-color="#FF790F"/>
</linearGradient>
<linearGradient id="paint1_linear_5161_5524" x1="85.5" y1="3" x2="85.5" y2="29" gradientUnits="userSpaceOnUse">
<stop stop-color="#F24A4A"/>
<stop offset="1" stop-color="#FF790F"/>
</linearGradient>
<clipPath id="clip0_5161_5524">
<rect width="29" height="32" fill="white"/>
</clipPath>
</defs>
</svg>
